<?xml version="1.0" encoding="UTF-8"?>
<!DOCTYPE svg PUBLIC "-//W3C//DTD SVG 1.1//EN" "http://www.w3.org/Graphics/SVG/1.1/DTD/svg11.dtd">
<!-- Creator: CorelDRAW 2017 -->
<svg xmlns="http://www.w3.org/2000/svg" xml:space="preserve" width="100%" height="100%" version="1.1" style="shape-rendering:geometricPrecision; text-rendering:geometricPrecision; image-rendering:optimizeQuality; fill-rule:evenodd; clip-rule:evenodd"
viewBox="0 0 1065 1313"
 xmlns:xlink="http://www.w3.org/1999/xlink">
 <defs>
  <style type="text/css">
   <![CDATA[
    .str0 {stroke:white;stroke-width:23.0315;stroke-linecap:round;stroke-linejoin:round}
    .fil2 {fill:none}
    .fil5 {fill:#01539D}
    .fil0 {fill:#01539D}
    .fil1 {fill:#E6E6E6}
    .fil4 {fill:#FFD662}
    .fil3 {fill:#FFD662}
   ]]>
  </style>
 </defs>
 <g id="Layer_x0020_1">
  <metadata id="CorelCorpID_0Corel-Layer"/>
  <g id="_1488149151232">
   <g>
    <path class="fil0" d="M535 13l-520 0c-2,105 -3,208 -1,304 2,100 8,192 21,273 2,10 4,19 5,27 3,17 6,31 12,54 3,12 7,25 10,38 6,25 13,51 23,75 2,5 6,16 11,28 12,30 21,52 31,73 6,13 13,26 22,41 9,15 19,32 33,53 27,41 53,78 82,111 29,34 60,65 99,96 8,7 15,13 22,19 10,9 21,18 32,26 23,18 27,20 35,25 5,3 11,6 24,15 7,4 25,16 41,24 8,4 14,7 16,7 1,0 2,0 3,0 2,0 8,-3 16,-7 16,-8 34,-19 41,-24 13,-8 19,-12 24,-15 8,-5 12,-7 35,-25 11,-9 21,-18 32,-26 7,-6 14,-12 22,-19 38,-31 70,-63 99,-96 29,-34 55,-70 82,-111 13,-21 24,-38 33,-53 9,-15 15,-28 22,-41 10,-21 19,-43 31,-73l11 -28c10,-24 16,-50 23,-75 3,-13 7,-27 10,-38 7,-23 9,-37 12,-54 1,-8 3,-17 5,-27 13,-81 18,-174 21,-273 2,-96 1,-199 -1,-304l-516 0zm-513 580c7,33 8,48 18,82 11,36 19,77 34,114 19,46 30,74 42,102 13,27 28,53 55,95 55,84 106,146 183,210 18,15 35,31 54,45 37,29 26,18 59,40 11,7 54,34 66,32 11,1 54,-25 66,-32 33,-21 23,-11 59,-40 18,-14 36,-30 54,-45 78,-64 129,-126 183,-210 27,-42 42,-68 55,-95 13,-27 24,-55 43,-102 15,-37 23,-79 34,-114 10,-34 11,-49 18,-82 26,-164 23,-373 19,-593l-528 0 -532 0c-4,220 -6,429 19,593zm513 708l0 0"/>
   </g>
   <g id="_1488149151968">
    <path class="fil1" d="M533 653c-130,0 -259,75 -390,223 12,25 26,50 52,89 51,79 99,137 172,197 17,14 33,29 50,42 34,27 25,17 56,37 10,7 51,31 62,30 21,-3 98,-53 116,-69 71,-60 129,-105 184,-185 28,-40 67,-97 89,-142 -129,-149 -259,-224 -389,-224l-2 0z"/>
    <g>
     <path class="fil2 str0" d="M533 861l206 67 -206 67 -146 -48 4 117 -17 0 4 -120 -51 -17 206 -67zm-120 115l0 48m241 -48l0 48m-16 -62c10,4 16,9 16,14 0,26 0,22 0,48 0,16 -54,29 -120,29 -66,0 -121,-13 -120,-29 0,-16 0,-35 0,-48 0,-3 8,-8 21,-13l100 33 104 -34z"/>
     <path id="1" class="fil3" d="M533 861l206 67 -206 67 -146 -48 4 117 -17 0 4 -120 -51 -17 206 -67zm-120 115l0 48 0 -48zm241 0l0 48 0 -48zm-16 -14c10,4 16,9 16,14 0,26 0,22 0,48 0,16 -54,29 -120,29 -66,0 -121,-13 -120,-29 0,-16 0,-35 0,-48 0,-3 8,-8 21,-13l100 33 104 -34z"/>
    </g>
    <path class="fil4" d="M922 876c-130,-148 -260,-222 -390,-223l0 -612c165,0 330,0 496,0 4,206 6,402 -18,556 -6,31 -7,45 -17,77 -10,33 -18,73 -32,107 -18,43 -28,70 -40,95z"/>
    <path class="fil0" d="M706 302l111 -67c6,-4 14,-2 18,4l109 181c4,6 2,14 -5,18l-111 67c-6,4 -14,2 -18,-4l-109 -181c-4,-6 -2,-14 4,-18zm144 -55l19 -11 4 7 -19 11 -4 -7zm10 17l19 -11 4 7 -19 11 -4 -7zm10 17l19 -11 4 7 -19 11 -4 -7zm10 17l19 -11 4 7 -19 11 -4 -7zm10 17l19 -11 4 7 -19 11 -4 -7zm10 17l19 -11 4 7 -19 11 -4 -7zm10 17l19 -11 4 7 -19 11 -4 -7zm10 17l19 -11 4 7 -19 11 -4 -7zm10 17l19 -11 4 7 -19 11 -4 -7zm10 17l19 -11 4 7 -19 11 -4 -7zm-259 -48l19 -11 4 7 -19 11 -4 -7zm10 17l19 -11 4 7 -19 11 -4 -7zm10 17l19 -11 4 7 -19 11 -4 -7zm10 17l19 -11 4 7 -19 11 -4 -7zm10 17l19 -11 4 7 -19 11 -4 -7zm10 17l19 -11 4 7 -19 11 -4 -7zm10 17l19 -11 4 7 -19 11 -4 -7zm10 17l19 -11 4 7 -19 11 -4 -7zm10 17l19 -11 4 7 -19 11 -4 -7zm10 17l19 -11 4 7 -19 11 -4 -7z"/>
    <path class="fil5" d="M143 876c130,-148 260,-222 390,-223l0 -612c-165,0 -330,0 -496,0 -4,206 -6,402 18,556 6,31 7,45 17,77 10,33 18,73 32,107 18,43 28,70 40,95z"/>
    <path class="fil4" d="M162 441l145 0 0 4c0,2 1,3 3,3l26 0c2,0 3,-2 3,-3l0 -4 145 0 0 0c0,16 -10,29 -23,29l-275 0c-13,0 -23,-13 -23,-29l0 0zm55 -170l211 0c12,0 21,10 21,21l0 115c0,12 -10,21 -21,21l-211 0c-12,0 -21,-10 -21,-21l0 -115c0,-12 10,-21 21,-21z"/>
   </g>
  </g>
 </g>
</svg>
